<svg id="Capa_1" enable-background="new 0 0 512 512" height="512" viewBox="0 0 512 512" width="512" xmlns="http://www.w3.org/2000/svg"><g><g><path d="m420.099 427.599-20.4 55.001c-6.298 17.7-23.399 29.4-41.999 29.4h-116.7v-30h116.7c6.299 0 11.7-3.9 14.099-9.901l9.6-26.499 17.04-37.926z" fill="#474f54"/></g><path d="m256 15c-63.6 0-120.3 28.2-158.401 72.599l22.5 22.5c15.3 15.601 39.901 17.401 58.2 4.501 22.8-16.051 50.25-24.075 77.701-24.075 27.449 0 54.901 8.024 77.701 24.075 17.986 12.658 43.312 10.919 58.2-4.501l22.5-22.5c-38.101-44.399-94.801-72.599-158.401-72.599z" fill="#ff9100"/><path d="m391.901 110.099 22.5-22.5c-38.101-44.399-94.801-72.599-158.401-72.599v75.526c27.449 0 54.901 8.024 77.701 24.075 17.986 12.657 43.312 10.918 58.2-4.502z" fill="#ff641a"/><path d="m256 0c-124.2 0-225 101.8-225 226v36.599l15 40.501 25.161-21.652-6.861-17.347-3.3-9.3v-28.801c0-107.401 87.599-196 195-196s195 88.599 195 196v28.801l-3.3 9.3-6.861 17.347 25.161 21.652 15-40.501v-36.599c0-124.2-100.8-226-225-226z" fill="#575f64"/><g><path d="m451 226v28.801l-3.3 9.3-6.861 17.347 25.161 21.652 15-40.501v-36.599c0-124.2-100.8-226-225-226v30c107.401 0 195 88.599 195 196z" fill="#474f54"/></g><g><g><g><g><path d="m447.7 264.101-5.101-10.501-40.499-14.7-49.501 23.401-45.298 124.199 23.099 49.801 39.9 14.399 11.1-5.099 38.699-18.001 45.901-124.5z" fill="#ff641a"/></g></g></g></g><g><g><g><g><path d="m46 303.1 45.901 124.499 49.799 23.101 39.901-14.399 23.099-49.801-45.298-124.199-49.502-23.401-40.499 14.7-5.101 10.501z" fill="#ff9100"/></g></g></g></g></g></svg>